<svg viewBox="0 0 34 34" fill="none" xmlns="http://www.w3.org/2000/svg">
<path d="M29.5 12.8333H21.1667V4.49998C21.1667 3.39491 20.7277 2.3351 19.9463 1.5537C19.1649 0.772301 18.1051 0.333313 17 0.333313C15.895 0.333313 14.8352 0.772301 14.0538 1.5537C13.2724 2.3351 12.8334 3.39491 12.8334 4.49998V12.8333H4.50004C3.39497 12.8333 2.33516 13.2723 1.55376 14.0537C0.772362 14.8351 0.333374 15.8949 0.333374 17C0.333374 18.105 0.772362 19.1649 1.55376 19.9463C2.33516 20.7277 3.39497 21.1666 4.50004 21.1666H12.8334V29.5C12.8334 30.605 13.2724 31.6649 14.0538 32.4463C14.8352 33.2277 15.895 33.6666 17 33.6666C18.1051 33.6666 19.1649 33.2277 19.9463 32.4463C20.7277 31.6649 21.1667 30.605 21.1667 29.5V21.1666H29.5C30.6051 21.1666 31.6649 20.7277 32.4463 19.9463C33.2277 19.1649 33.6667 18.105 33.6667 17C33.6667 15.8949 33.2277 14.8351 32.4463 14.0537C31.6649 13.2723 30.6051 12.8333 29.5 12.8333Z" fill="url(#paint0_linear_309_252)"/>
<defs>
<linearGradient id="paint0_linear_309_252" x1="17" y1="0.333313" x2="17" y2="33.6666" gradientUnits="userSpaceOnUse">
<stop offset="0.451042" stop-color="#2072FE"/>
<stop offset="1" stop-color="#07B4EB"/>
</linearGradient>
</defs>
</svg>
